<svg width="92" height="97" viewBox="0 0 92 97" fill="none" xmlns="http://www.w3.org/2000/svg">
<path d="M41.9502 42.019L4.06361 60.8556L14.1489 80.7866L52.0086 61.5955L41.9502 42.019Z" fill="#02F18B"/>
<path d="M39.2207 95.6904L52.0082 61.5953L27.2244 74.1181L26.7013 76.652L37.4437 95.8216C38.3611 96.6094 39.0106 96.0624 39.2207 95.6904Z" fill="#2495FD"/>
<path d="M20.8989 39.2454L23.6397 16.5778C23.6397 14.6832 21.8125 13.7584 20.8989 13.5329L0 9.47302V11.1646L20.8989 39.2454Z" fill="#FD3166"/>
<path d="M45.909 2.02993L41.4552 41.2753L20.5563 39.2454L25.0101 0L45.909 2.02993Z" fill="#F6B362"/>
<path d="M90.5467 18.3837L55.0688 23.8568C59.729 27.1801 71.3775 34.9615 73.7757 36.6531C76.6145 38.6554 77.2018 36.9915 78.0686 36.0236L90.5886 19.7364L90.5467 18.3837Z" fill="#473DD9"/>
<path d="M55.2751 23.7969L43.2839 41.0513L76.174 63.3806L88.1651 46.1261L55.2751 23.7969Z" fill="#F491FE"/>
</svg>
